HIERARCHY
ROOT Pelvis
{
	OFFSET 0.000000 0.941512 0.000000
	CHANNELS 6 Xposition Yposition Zposition Zrotation Yrotation Xrotation 
	JOINT Pelvis_L_Hip
	{
		OFFSET 0.000000 0.000000 0.000000
		CHANNELS 3 Zrotation Yrotation Xrotation
		JOINT L_Hip
		{
			OFFSET 0.062321 -0.080322 -0.016990
			CHANNELS 3 Zrotation Yrotation Xrotation
			JOINT L_Knee
			{
				OFFSET 0.093051 -0.381305 -0.029784
				CHANNELS 3 Zrotation Yrotation Xrotation
				JOINT L_Ankle
				{
					OFFSET -0.010371 -0.431000 -0.033614
					CHANNELS 3 Zrotation Yrotation Xrotation
					End Site #name: L_Foot
					{
						OFFSET 0.069299 -0.038670 0.119418
					}
				}
			}
		}
	}
	JOINT Pelvis_R_Hip
	{
		OFFSET 0.000000 0.000000 0.000000
		CHANNELS 3 Zrotation Yrotation Xrotation
		JOINT R_Hip
		{
			OFFSET -0.055334 -0.094904 -0.002373
			CHANNELS 3 Zrotation Yrotation Xrotation
			JOINT R_Knee
			{
				OFFSET -0.064207 -0.384370 -0.019592
				CHANNELS 3 Zrotation Yrotation Xrotation
				JOINT R_Ankle
				{
					OFFSET 0.025418 -0.419734 -0.065953
					CHANNELS 3 Zrotation Yrotation Xrotation
					End Site #name: R_Foot
					{
						OFFSET -0.057233 -0.039888 0.132134
					}
				}
			}
		}
	}
	JOINT Pelvis_Spine1
	{
		OFFSET 0.000000 0.000000 0.000000
		CHANNELS 3 Zrotation Yrotation Xrotation
		JOINT Spine1
		{
			OFFSET -0.005562 0.124093 -0.043360
			CHANNELS 3 Zrotation Yrotation Xrotation
			JOINT Spine2
			{
				OFFSET 0.012244 0.139499 0.029894
				CHANNELS 3 Zrotation Yrotation Xrotation
				JOINT Spine3
				{
					OFFSET -0.002556 0.056561 0.009225
					CHANNELS 3 Zrotation Yrotation Xrotation
					JOINT Spine3_Neck
					{
						OFFSET 0.000000 0.000000 0.000000
						CHANNELS 3 Zrotation Yrotation Xrotation
						JOINT Neck
						{
							OFFSET -0.005205 0.217920 -0.024551
							CHANNELS 3 Zrotation Yrotation Xrotation
							End Site #name: Head
							{
								OFFSET 0.002365 0.091850 0.046637
							}
						}
					}
					JOINT Spine3_L_Collar
					{
						OFFSET 0.000000 0.000000 0.000000
						CHANNELS 3 Zrotation Yrotation Xrotation
						JOINT L_Collar
						{
							OFFSET 0.072225 0.116603 -0.009480
							CHANNELS 3 Zrotation Yrotation Xrotation
							JOINT L_Shoulder
							{
								OFFSET 0.115937 -0.058643 -0.021018
								CHANNELS 3 Zrotation Yrotation Xrotation
								JOINT L_Elbow
								{
									OFFSET 0.021994 -0.254722 -0.024492
									CHANNELS 3 Zrotation Yrotation Xrotation
									End Site #name: L_Wrist
									{
										OFFSET 0.048810 -0.240214 0.103329
									}
								}
							}
						}
					}
					JOINT Spine3_R_Collar
					{
						OFFSET 0.000000 0.000000 0.000000
						CHANNELS 3 Zrotation Yrotation Xrotation
						JOINT R_Collar
						{
							OFFSET -0.073372 0.120704 -0.024611
							CHANNELS 3 Zrotation Yrotation Xrotation
							JOINT R_Shoulder
							{
								OFFSET -0.108089 -0.054969 -0.020504
								CHANNELS 3 Zrotation Yrotation Xrotation
								JOINT R_Elbow
								{
									OFFSET -0.033684 -0.260739 0.009889
									CHANNELS 3 Zrotation Yrotation Xrotation
									End Site #name: R_Wrist
									{
										OFFSET -0.067980 -0.232763 0.118463
									}
								}
							}
						}
					}
				}
			}
		}
	}
}
MOTION
Frames: 13
Frame Time: 0.041667
0.000000 0.944218 0.000000 -2.805282 -2.725904 -1.282691 0.000000 0.000000 0.000000 0.248072 0.930859 3.885658 3.357177 -0.194639 -1.398578 -1.101086 -2.763985 0.380759 0.000000 0.000000 0.000000 2.842832 -1.061520 4.783311 -3.290423 0.030869 -5.357823 5.864354 13.432785 3.598498 0.000000 0.000000 0.000000 6.164609 -1.072877 -1.724122 -2.377985 0.234877 -2.311373 2.608922 1.878060 7.520409 0.000000 0.000000 0.000000 -2.336199 1.225570 1.887390 0.000000 0.000000 0.000000 16.800453 -2.289718 1.720951 -20.440018 0.791847 -5.446167 1.456286 -0.629343 -6.566185 0.000000 0.000000 0.000000 -22.860514 7.882081 -1.312327 23.141700 -0.106686 2.165956 1.807402 2.915385 -6.200224 
-0.000866 0.944421 -0.002354 -2.866209 -2.965212 -1.157350 0.000000 0.000000 0.000000 0.352451 0.827413 3.506595 3.328666 -0.210402 -1.084680 -1.008436 -2.498096 0.368010 0.000000 0.000000 0.000000 2.958432 -1.001183 4.411450 -3.293659 0.039988 -5.251838 5.995311 13.588912 3.739907 0.000000 0.000000 0.000000 6.196264 -1.093734 -1.633751 -2.494665 0.251576 -2.309893 2.557316 1.835891 7.622825 0.000000 0.000000 0.000000 -2.204516 1.155609 1.627518 0.000000 0.000000 0.000000 16.596806 -2.330550 1.631587 -20.498104 0.923585 -4.998123 1.419928 -0.392068 -5.259582 0.000000 0.000000 0.000000 -22.849029 7.987478 -1.366231 23.080777 -0.178811 2.370767 1.856630 2.755215 -5.626553 
-0.001454 0.944685 -0.004730 -2.923878 -3.322236 -1.084025 0.000000 0.000000 0.000000 0.381978 0.781347 3.325960 3.348749 -0.217901 -0.992553 -0.894671 -2.095935 0.394347 0.000000 0.000000 0.000000 3.075548 -0.962153 4.154595 -3.336499 0.041855 -5.271310 6.163288 13.766682 3.929353 0.000000 0.000000 0.000000 6.265603 -1.132143 -1.470011 -2.609986 0.272285 -2.244441 2.433846 1.811500 7.674275 0.000000 0.000000 0.000000 -2.113012 1.107752 1.501089 0.000000 0.000000 0.000000 16.243202 -2.331648 1.536395 -20.597825 1.123680 -4.312212 1.444137 0.034654 -3.104797 0.000000 0.000000 0.000000 -22.925658 8.140912 -1.436227 22.965088 -0.278969 2.666157 2.050096 2.602183 -4.823009 
-0.001638 0.944635 -0.006027 -3.027706 -3.672866 -1.186149 0.000000 0.000000 0.000000 0.453753 0.801820 3.434672 3.371562 -0.221522 -0.975344 -0.803506 -1.772161 0.417258 0.000000 0.000000 0.000000 3.184843 -0.993404 4.272200 -3.362690 0.023159 -5.504074 6.359362 14.005283 4.134334 0.000000 0.000000 0.000000 6.405550 -1.183566 -1.301373 -2.749007 0.304414 -2.062453 2.336267 1.792620 7.785525 0.000000 0.000000 0.000000 -2.058353 1.079843 1.364102 0.000000 0.000000 0.000000 15.856774 -2.300484 1.463048 -20.725101 1.364079 -3.496307 1.502246 0.471178 -0.932260 0.000000 0.000000 0.000000 -23.042597 8.368079 -1.564892 22.650856 -0.433886 3.118267 2.505544 2.678349 -4.271079 
-0.001789 0.944451 -0.006776 -3.154494 -3.910978 -1.357994 0.000000 0.000000 0.000000 0.607282 0.823143 3.583822 3.328518 -0.224258 -0.879307 -0.729604 -1.587375 0.392393 0.000000 0.000000 0.000000 3.280821 -1.033887 4.443911 -3.323590 0.008653 -5.615232 6.480039 14.187733 4.239977 0.000000 0.000000 0.000000 6.474808 -1.218960 -1.139827 -2.856741 0.332650 -1.876533 2.274327 1.723843 7.923699 0.000000 0.000000 0.000000 -1.925036 1.009403 1.254626 0.000000 0.000000 0.000000 15.521932 -2.174456 1.469112 -20.847578 1.635832 -2.574418 1.565318 0.833460 0.874633 0.000000 0.000000 0.000000 -23.057692 8.399407 -1.553392 22.310306 -0.583729 3.560322 2.912422 2.795647 -3.934859 
-0.001896 0.944360 -0.007382 -3.256100 -4.043536 -1.385250 0.000000 0.000000 0.000000 0.740652 0.817549 3.616705 3.276804 -0.221276 -0.871136 -0.680509 -1.464930 0.375503 0.000000 0.000000 0.000000 3.374046 -1.025357 4.357458 -3.302079 0.016598 -5.493808 6.520528 14.268873 4.262125 0.000000 0.000000 0.000000 6.417232 -1.208029 -1.133492 -2.892270 0.341607 -1.821130 2.208813 1.624506 8.051098 0.000000 0.000000 0.000000 -1.686014 0.881866 1.323319 0.000000 0.000000 0.000000 15.336008 -1.884358 1.616855 -20.884344 1.894512 -1.673217 1.482466 1.042738 2.201123 0.000000 0.000000 0.000000 -22.960037 8.095006 -1.288591 22.220795 -0.682092 3.847728 2.954602 2.719365 -3.637410 
-0.001775 0.944339 -0.007840 -3.339157 -4.126403 -1.395156 0.000000 0.000000 0.000000 0.821507 0.829617 3.700666 3.259825 -0.213383 -1.000834 -0.657514 -1.369854 0.388934 0.000000 0.000000 0.000000 3.464358 -1.009600 4.235203 -3.316522 0.032589 -5.327107 6.534558 14.294528 4.269943 0.000000 0.000000 0.000000 6.309351 -1.187839 -1.121821 -2.894229 0.340642 -1.839000 2.166222 1.587054 8.090109 0.000000 0.000000 0.000000 -1.474948 0.767957 1.530178 0.000000 0.000000 0.000000 15.275181 -1.637581 1.764988 -20.820714 2.112671 -0.864800 1.274121 1.122242 3.088752 0.000000 0.000000 0.000000 -22.847171 7.753770 -1.012010 22.280254 -0.811187 4.232696 2.796604 2.599218 -3.542832 
-0.001351 0.944345 -0.008341 -3.427067 -4.173585 -1.399544 0.000000 0.000000 0.000000 0.871695 0.839883 3.764804 3.286555 -0.208077 -1.137833 -0.656668 -1.305927 0.423681 0.000000 0.000000 0.000000 3.546173 -0.992584 4.110523 -3.306732 0.046661 -5.153330 6.513867 14.236658 4.262953 0.000000 0.000000 0.000000 6.238871 -1.172652 -1.128532 -2.885432 0.338940 -1.844515 2.149218 1.614000 8.095968 0.000000 0.000000 0.000000 -1.367597 0.709054 1.734131 0.000000 0.000000 0.000000 15.242380 -1.464954 1.875694 -20.679354 2.233545 -0.365938 1.149644 1.173253 3.629129 0.000000 0.000000 0.000000 -22.802389 7.556385 -0.856917 22.373219 -0.912163 4.530374 2.731911 2.533519 -3.453321 
-0.000818 0.944321 -0.008870 -3.490074 -4.213858 -1.421784 0.000000 0.000000 0.000000 0.913288 0.853657 3.839699 3.273128 -0.200892 -1.256149 -0.670877 -1.288396 0.458821 0.000000 0.000000 0.000000 3.570718 -0.970122 3.985387 -3.283969 0.061999 -4.947996 6.500741 14.202530 4.256134 0.000000 0.000000 0.000000 6.230789 -1.170653 -1.129713 -2.914357 0.347756 -1.778297 2.125770 1.680436 8.073583 0.000000 0.000000 0.000000 -1.327166 0.686134 1.876656 0.000000 0.000000 0.000000 15.226676 -1.336060 1.963825 -20.511256 2.226030 -0.315949 1.214495 1.246209 3.889840 0.000000 0.000000 0.000000 -22.784054 7.556431 -0.865499 22.606366 -0.950180 4.634563 2.578474 2.383915 -3.259475 
-0.000018 0.944353 -0.009349 -3.509509 -4.250381 -1.413910 0.000000 0.000000 0.000000 0.900220 0.858889 3.855013 3.241564 -0.194629 -1.334166 -0.675335 -1.286041 0.468234 0.000000 0.000000 0.000000 3.533345 -0.944505 3.870956 -3.275507 0.071250 -4.830792 6.513466 14.224856 4.265346 0.000000 0.000000 0.000000 6.260639 -1.178652 -1.116662 -2.937489 0.345883 -1.854332 2.076710 1.774291 8.063137 0.000000 0.000000 0.000000 -1.380850 0.714404 2.019579 0.000000 0.000000 0.000000 15.287655 -1.245686 2.042644 -20.318515 2.163422 -0.458765 1.202204 1.192497 3.622881 0.000000 0.000000 0.000000 -22.786538 7.670500 -0.967949 22.850377 -1.003507 4.778704 2.430287 2.301617 -3.260306 
0.000817 0.944391 -0.009720 -3.489061 -4.241281 -1.405805 0.000000 0.000000 0.000000 0.825541 0.860616 3.829145 3.239025 -0.192923 -1.363444 -0.673948 -1.297371 0.459388 0.000000 0.000000 0.000000 3.472274 -0.932261 3.835041 -3.301771 0.073545 -4.838144 6.512837 14.210188 4.272104 0.000000 0.000000 0.000000 6.254039 -1.178564 -1.108360 -2.926101 0.335584 -1.979580 2.061821 1.829766 8.043899 0.000000 0.000000 0.000000 -1.496659 0.776581 2.262663 0.000000 0.000000 0.000000 15.414247 -1.299157 2.035551 -20.125037 2.087422 -0.653982 1.047314 0.979555 2.805908 0.000000 0.000000 0.000000 -22.800984 7.747447 -1.037489 22.969768 -1.036166 4.868677 2.460640 2.457452 -3.680715 
0.001684 0.944436 -0.010056 -3.455901 -4.188018 -1.441084 0.000000 0.000000 0.000000 0.749464 0.864568 3.812538 3.226837 -0.192584 -1.350726 -0.684827 -1.343012 0.452437 0.000000 0.000000 0.000000 3.377162 -0.932980 3.881888 -3.306901 0.068028 -4.909153 6.541588 14.210313 4.324638 0.000000 0.000000 0.000000 6.161407 -1.159932 -1.104394 -2.868528 0.321484 -2.064023 2.117479 1.799543 7.992424 0.000000 0.000000 0.000000 -1.566063 0.813698 2.633993 0.000000 0.000000 0.000000 15.664529 -1.485160 1.955267 -20.097106 2.012227 -0.916223 0.831611 0.670410 1.632598 0.000000 0.000000 0.000000 -22.845067 7.775578 -1.055676 22.929883 -0.971138 4.684408 2.673122 2.781368 -4.294673 
0.002506 0.944504 -0.010376 -3.462990 -4.146696 -1.500805 0.000000 0.000000 0.000000 0.725509 0.867331 3.813929 3.201452 -0.192375 -1.319068 -0.704314 -1.380976 0.465047 0.000000 0.000000 0.000000 3.325462 -0.932906 3.905931 -3.304751 0.069869 -4.886638 6.540507 14.203149 4.328496 0.000000 0.000000 0.000000 6.101475 -1.147213 -1.103745 -2.815161 0.309259 -2.130608 2.157801 1.690394 7.967124 0.000000 0.000000 0.000000 -1.563952 0.812436 2.985970 0.000000 0.000000 0.000000 15.926878 -1.727576 1.829228 -20.140086 1.918033 -1.286077 0.632031 0.347612 0.389718 0.000000 0.000000 0.000000 -22.840595 7.765913 -1.037785 22.845170 -0.816062 4.235795 2.837114 3.075958 -4.891105 
